<?xml version="1.0" encoding="UTF-8" standalone="no"?>
<!-- Created with Inkscape (http://www.inkscape.org/) -->

<svg
   width="32"
   height="32"
   viewBox="0 0 32 32"
   version="1.1"
   id="svg1"
   xml:space="preserve"
   xmlns="http://www.w3.org/2000/svg"
   xmlns:svg="http://www.w3.org/2000/svg"><defs
     id="defs1" /><path
     id="path1"
     style="baseline-shift:baseline;display:inline;overflow:visible;vector-effect:none;enable-background:accumulate;stop-color:#000000;stop-opacity:1;opacity:1"
     d="M 24.933594 0.57226562 C 24.67124 0.58342452 24.405635 0.67750886 24.185547 0.87109375 L 19.357422 5.1171875 L 19.355469 5.1191406 C 18.690642 5.720305 17.674753 5.3923691 17.488281 4.515625 L 17.433594 4.2558594 L 17.375 2 A 1.2262424 1.0218687 0 0 0 16.150391 1 L 15.849609 1 A 1.2262424 1.0218687 0 0 0 14.625 2 L 14.564453 4.375 L 14.316406 4.8164062 C 14.206765 5.0123527 14.043674 5.1756437 13.847656 5.2851562 L 11.708984 6.4804688 C 11.068558 6.8382661 10.71266 7.5569788 10.816406 8.2832031 L 11.5 13.072266 C 11.59864 13.762747 11.46695 14.465449 11.123047 15.072266 L 3.0234375 29.361328 C 2.7024521 29.927712 2.6008258 30.544892 2.9316406 31.015625 C 3.2624556 31.486358 3.8802087 31.596926 4.5214844 31.480469 C 11.491894 30.21463 18.499405 28.344913 24.988281 23.980469 C 25.465561 23.659448 25.646123 23.094011 25.457031 22.556641 L 22.744141 14.84375 C 22.482803 14.101063 22.47395 13.292581 22.720703 12.544922 L 26.146484 2.1660156 C 26.330209 1.6093281 26.075671 1.0429007 25.662109 0.76953125 C 25.455328 0.63284651 25.195947 0.56110675 24.933594 0.57226562 z M 24.986328 1.5546875 C 25.027988 1.5553526 25.067111 1.5755792 25.109375 1.6035156 C 25.193905 1.6593886 25.242988 1.7149796 25.197266 1.8535156 L 21.771484 12.232422 C 21.732659 12.350061 21.69889 12.46821 21.669922 12.587891 L 20.326172 16.25 L 18.75 16.25 L 18.75 12 A 0.250025 0.250025 0 0 0 18.5 11.75 L 14.25 11.75 L 14.25 9.75 L 18.5 9.75 A 0.250025 0.250025 0 0 0 18.75 9.5 L 18.75 6.3847656 C 19.1978 6.3688651 19.646486 6.2039238 20.025391 5.8613281 L 24.845703 1.6210938 C 24.900474 1.5729187 24.944669 1.5540224 24.986328 1.5546875 z M 17.478516 6.0136719 C 17.713252 6.1723398 17.976516 6.2843117 18.25 6.3417969 L 18.25 9.25 L 14 9.25 A 0.250025 0.250025 0 0 0 13.75 9.5 L 13.75 12 A 0.250025 0.250025 0 0 0 14 12.25 L 18.25 12.25 L 18.25 16.5 A 0.250025 0.250025 0 0 0 18.5 16.75 L 20.5 16.75 A 0.250025 0.250025 0 0 0 20.734375 16.585938 L 21.583984 14.273438 C 21.625401 14.579142 21.697181 14.881364 21.800781 15.175781 L 24.513672 22.888672 C 24.529862 22.934692 24.465567 23.126253 24.429688 23.150391 C 18.107727 27.402566 11.257785 29.240138 4.3417969 30.496094 C 3.9088243 30.574721 3.7715843 30.470167 3.75 30.439453 C 3.7284157 30.40874 3.6771748 30.238998 3.8945312 29.855469 L 11.992188 15.564453 C 12.445052 14.765366 12.620129 13.838947 12.490234 12.929688 L 11.806641 8.140625 C 11.760941 7.8207077 11.915144 7.5091799 12.197266 7.3515625 L 14.335938 6.1582031 C 14.399356 6.1227721 14.462113 6.0843033 14.521484 6.0429688 L 14.513672 6.3085938 A 0.61110403 0.50925336 0 0 0 15.125 6.828125 L 16.875 6.828125 A 0.61110403 0.50925336 0 0 0 17.486328 6.3085938 L 17.478516 6.0136719 z " /><circle
     style="display:inline;stroke:none;stroke-width:0.5;stroke-linecap:round;stroke-linejoin:round;stroke-dasharray:none;stroke-opacity:1;paint-order:markers stroke fill"
     id="path10-4"
     cx="19.196095"
     cy="23.411718"
     r="0.75" /><circle
     style="stroke:none;stroke-width:0.5;stroke-linecap:round;stroke-linejoin:round;stroke-dasharray:none;stroke-opacity:1;paint-order:markers stroke fill"
     id="path10"
     cx="20.90625"
     cy="18.28125"
     r="0.75" /><circle
     style="stroke:none;stroke-width:0.5;stroke-linecap:round;stroke-linejoin:round;stroke-dasharray:none;stroke-opacity:1;paint-order:markers stroke fill"
     id="path10-5"
     cx="20.05547"
     cy="20.833593"
     r="0.75" /><path
     id="path11-6"
     style="baseline-shift:baseline;display:inline;overflow:visible;vector-effect:none;stroke-linecap:round;enable-background:accumulate;stop-color:#000000;stop-opacity:1;opacity:1"
     d="M 14.472656 7 A 0.5 0.5 0 0 0 13.972656 7.5 A 0.5 0.5 0 0 0 14.472656 8 A 0.5 0.5 0 0 0 13.972656 8.5 A 0.5 0.5 0 0 0 14.472656 9 L 17.472656 9 A 0.5 0.5 0 0 0 17.972656 8.5 A 0.5 0.5 0 0 0 17.472656 8 A 0.5 0.5 0 0 0 17.972656 7.5 A 0.5 0.5 0 0 0 17.472656 7 L 14.472656 7 z " /><path
     style="baseline-shift:baseline;display:inline;overflow:visible;vector-effect:none;stroke-linecap:round;enable-background:accumulate;stop-color:#000000;stop-opacity:1;opacity:1"
     d="m 13.796875,17.296875 a 0.5,0.5 0 0 0 -0.5,0.5 0.5,0.5 0 0 0 0.5,0.5 h 4.351562 a 0.5,0.5 0 0 0 0.5,-0.5 0.5,0.5 0 0 0 -0.5,-0.5 z"
     id="path18" /><path
     id="path11"
     style="baseline-shift:baseline;display:inline;overflow:visible;vector-effect:none;stroke-linecap:round;enable-background:accumulate;stop-color:#000000;stop-opacity:1;opacity:1"
     d="M 14.5 12.5 A 0.5 0.5 0 0 0 14 13 A 0.5 0.5 0 0 0 14.5 13.5 A 0.5 0.5 0 0 0 14 14 A 0.5 0.5 0 0 0 14.5 14.5 L 17.5 14.5 A 0.5 0.5 0 0 0 18 14 A 0.5 0.5 0 0 0 17.5 13.5 A 0.5 0.5 0 0 0 18 13 A 0.5 0.5 0 0 0 17.5 12.5 L 14.5 12.5 z " /></svg>
