<?xml version="1.0" encoding="UTF-8" standalone="no"?>
<!-- Created with Inkscape (http://www.inkscape.org/) -->

<svg
   width="100"
   height="100"
   viewBox="0 0 26.458333 26.458333"
   version="1.1"
   id="svg1"
   xml:space="preserve"
   inkscape:version="1.4.2 (f4327f4, 2025-05-13)"
   sodipodi:docname="Explorer paths.svg"
   inkscape:export-filename="Explorer.png"
   inkscape:export-xdpi="96"
   inkscape:export-ydpi="96"
   xmlns:inkscape="http://www.inkscape.org/namespaces/inkscape"
   xmlns:sodipodi="http://sodipodi.sourceforge.net/DTD/sodipodi-0.dtd"
   xmlns="http://www.w3.org/2000/svg"
   xmlns:svg="http://www.w3.org/2000/svg"><sodipodi:namedview
     id="namedview1"
     pagecolor="#ffffff"
     bordercolor="#666666"
     borderopacity="1.0"
     inkscape:showpageshadow="2"
     inkscape:pageopacity="0.0"
     inkscape:pagecheckerboard="0"
     inkscape:deskcolor="#d1d1d1"
     inkscape:document-units="mm"
     showgrid="false"
     inkscape:zoom="8"
     inkscape:cx="78.3125"
     inkscape:cy="33.9375"
     inkscape:window-width="2560"
     inkscape:window-height="1377"
     inkscape:window-x="1912"
     inkscape:window-y="100"
     inkscape:window-maximized="1"
     inkscape:current-layer="layer1"><inkscape:grid
       id="grid1"
       units="mm"
       originx="0"
       originy="0"
       spacingx="0.26458333"
       spacingy="0.26458334"
       empcolor="#3f3fff"
       empopacity="0.25098039"
       color="#3f3fff"
       opacity="0.1254902"
       empspacing="5"
       enabled="true"
       visible="false" /></sodipodi:namedview><defs
     id="defs1"><inkscape:path-effect
       effect="fillet_chamfer"
       id="path-effect2"
       is_visible="true"
       lpeversion="1"
       nodesatellites_param="F,0,0,1,0,0.74796593,0,1 @ F,0,0,1,0,1.0583336,0,1 @ F,0,0,1,0,0,0,1 @ F,0,0,1,0,0,0,1 @ F,0,0,1,0,0,0,1"
       radius="0"
       unit="px"
       method="auto"
       mode="F"
       chamfer_steps="1"
       flexible="false"
       use_knot_distance="true"
       apply_no_radius="true"
       apply_with_radius="true"
       only_selected="false"
       hide_knots="false" /><inkscape:path-effect
       effect="fillet_chamfer"
       id="path-effect1"
       is_visible="true"
       lpeversion="1"
       nodesatellites_param="F,0,0,1,0,0,0,1 @ F,0,0,1,0,0.716049,0,1 @ F,0,0,1,0,0.82923799,0,1 @ F,0,0,1,0,1.0906531,0,1 @ F,0,0,1,0,1.2973401,0,1 @ F,0,0,1,0,0.83649622,0,1 @ F,0,0,1,0,1.0856655,0,1 @ F,0,0,1,0,3.3452086,0,1 @ F,0,0,1,0,3.3537328,0,1 @ F,0,0,1,0,0,0,1"
       radius="0"
       unit="px"
       method="auto"
       mode="F"
       chamfer_steps="1"
       flexible="false"
       use_knot_distance="true"
       apply_no_radius="true"
       apply_with_radius="true"
       only_selected="false"
       hide_knots="false" /><inkscape:path-effect
       effect="fillet_chamfer"
       id="path-effect1-2"
       is_visible="true"
       lpeversion="1"
       nodesatellites_param="F,0,0,1,0,0,0,1 @ F,0,0,1,0,3.1750003,0,1 @ F,0,0,1,0,3.3452086,0,1 @ F,0,0,1,0,1.0856655,0,1 @ F,0,0,1,0,0.83649622,0,1 @ F,0,0,1,0,1.2973401,0,1 @ F,0,0,1,0,1.0906531,0,1 @ F,0,0,1,0,0.82923799,0,1 @ F,0,0,1,0,0.716049,0,1 @ F,0,0,1,0,0,0,1"
       radius="0"
       unit="px"
       method="auto"
       mode="F"
       chamfer_steps="1"
       flexible="false"
       use_knot_distance="true"
       apply_no_radius="true"
       apply_with_radius="true"
       only_selected="false"
       hide_knots="false" /></defs><g
     inkscape:label="Layer 1"
     inkscape:groupmode="layer"
     id="layer1"><path
       style="baseline-shift:baseline;display:inline;overflow:visible;vector-effect:none;enable-background:accumulate;stop-color:#000000;stop-opacity:1;opacity:1"
       d="m 20.064453,0.671875 c -0.343054,0.0467032 -0.680634,0.20215127 -0.935547,0.484375 l -2.917969,3.2304687 c -0.177406,0.1964141 -0.358313,0.2034097 -0.546874,0.1308594 -0.188562,-0.07255 -0.31836,-0.1982183 -0.31836,-0.4628906 V 3.96875 h -1.58789 v 0.085937 c -1e-6,0.916807 0.5985,1.6615785 1.335937,1.9453125 0.737437,0.283734 1.680399,0.1315369 2.294922,-0.5488281 L 20.1875,2.3535156 17.542969,11.167969 c -0.251271,0.837568 -0.227702,1.733137 0.06641,2.55664 l 2,5.597657 c 0.01278,0.03578 -0.04988,0.195338 -0.07617,0.208984 C 13.683912,22.567821 9.1116911,23.558146 4.09375,24.066406 L 9.9667969,13.244141 C 10.390536,12.463388 10.531452,11.558187 10.365234,10.685547 L 9.6660156,7.015625 C 9.6537403,6.9511794 9.6830006,6.9046955 9.7460938,6.8867187 L 11.046875,6.515625 C 11.77436,6.3083474 12.304074,5.6710741 12.375,4.9179687 l 0.05664,-0.609375 -1.580078,-0.1503906 -0.05664,0.6113281 c -0.01004,0.1065747 -0.08065,0.1894175 -0.183594,0.21875 L 9.3105469,5.359375 C 8.470618,5.5986912 7.9440062,6.4545675 8.1074219,7.3125 l 0.6992187,3.669922 c 0.097733,0.513095 0.014775,1.044839 -0.234375,1.503906 L 2.5996094,23.490234 c -0.2566437,0.472874 -0.3536801,1.08698 -0.025391,1.587891 0.3282894,0.500911 0.9374322,0.656376 1.4746093,0.603516 5.2116787,-0.512853 10.1087949,-1.572325 16.2148439,-4.742188 0.793727,-0.412052 1.137829,-1.316031 0.839844,-2.150391 l -2,-5.597656 c -0.180299,-0.504836 -0.193101,-1.0549 -0.03906,-1.568359 L 21.759766,2.6386719 C 21.978323,1.910142 21.598278,1.1618306 21.037109,0.84570313 20.756525,0.68763939 20.407507,0.62517184 20.064453,0.671875 Z"
       id="path1" /><path
       style="baseline-shift:baseline;display:inline;overflow:visible;vector-effect:none;stroke-linecap:round;stroke-linejoin:round;enable-background:accumulate;stop-color:#000000"
       d="m 20.119699,1.4004326 c -0.218464,-0.00108 -0.427478,0.089009 -0.576709,0.2485637 L 16.497028,5.039205 c -0.421201,0.4502954 -0.844873,0.6035018 -1.415779,0.5170454 l 0,2.3812507 -3.174999,-5e-7 v 2.3812504 h 3.174999 l 0,3.439583 2.163644,0.02234 2.06969,-6.9015088 1.570966,-4.844148 C 20.814149,1.667986 20.493607,1.4023771 20.119699,1.4004326 Z"
       id="path5"
       sodipodi:nodetypes="ccccccccccccc" /><path
       id="path4"
       style="opacity:1;stroke-width:1.05833;stroke-linecap:round;stroke-opacity:0.636364;paint-order:markers fill stroke"
       d="m 17.636065,14.777665 a 0.52522123,0.52916634 0 0 1 -0.525221,0.529166 0.52522123,0.52916634 0 0 1 -0.525222,-0.529166 0.52522123,0.52916634 0 0 1 0.525222,-0.529166 0.52522123,0.52916634 0 0 1 0.525221,0.529166 z" /><path
       id="path4-2"
       style="stroke-width:1.05833;stroke-linecap:round;stroke-opacity:0.636364;paint-order:markers fill stroke"
       d="m 17.149901,16.391729 a 0.52522123,0.52916634 0 0 1 -0.525221,0.529167 0.52522123,0.52916634 0 0 1 -0.525222,-0.529167 0.52522123,0.52916634 0 0 1 0.525222,-0.529166 0.52522123,0.52916634 0 0 1 0.525221,0.529166 z" /><path
       id="path4-7"
       style="stroke-width:1.05833;stroke-linecap:round;stroke-opacity:0.636364;paint-order:markers fill stroke"
       d="m 16.65548,18.033207 a 0.52522123,0.52916634 0 0 1 -0.525221,0.529166 0.52522123,0.52916634 0 0 1 -0.525222,-0.529166 0.52522123,0.52916634 0 0 1 0.525222,-0.529166 0.52522123,0.52916634 0 0 1 0.525221,0.529166 z" /><path
       style="baseline-shift:baseline;display:inline;overflow:visible;vector-effect:none;stroke-linecap:round;stroke-linejoin:round;paint-order:markers fill stroke;enable-background:accumulate;stop-color:#000000;stop-opacity:1;opacity:1"
       d="m 11.841797,5.9433594 c -0.182396,0 -0.332031,0.1515874 -0.332031,0.3339843 v 1.1953125 c 0,0.1823963 0.149634,0.3320313 0.332031,0.3320313 h 2.773437 c 0.182396,0 0.333985,-0.1496343 0.333985,-0.3320313 V 6.2773437 c 0,-0.1823962 -0.151588,-0.3339843 -0.333985,-0.3339843 z m 0,0.265625 h 2.773437 c 0.04039,0 0.06836,0.027965 0.06836,0.068359 v 1.1953125 c 0,0.040393 -0.02797,0.068359 -0.06836,0.068359 h -2.773437 c -0.0404,0 -0.06836,-0.027966 -0.06836,-0.068359 V 6.2773437 c 0,-0.040393 0.02797,-0.068359 0.06836,-0.068359 z"
       id="rect6" /><path
       style="baseline-shift:baseline;display:inline;overflow:visible;vector-effect:none;stroke-linecap:round;stroke-linejoin:round;paint-order:markers fill stroke;enable-background:accumulate;stop-color:#000000;stop-opacity:1;opacity:1"
       d="m 11.808594,10.451172 c -0.163831,0 -0.298828,0.135 -0.298828,0.298828 v 1.253906 c 0,0.163831 0.135,0.298828 0.298828,0.298828 h 2.839844 c 0.16383,0 0.300781,-0.135 0.300781,-0.298828 V 10.75 c 0,-0.163831 -0.136953,-0.298828 -0.300781,-0.298828 z m 0,0.263672 h 2.839844 c 0.02183,0 0.03516,0.01332 0.03516,0.03516 v 1.253906 c 0,0.02183 -0.01332,0.03516 -0.03516,0.03516 h -2.839844 c -0.02183,0 -0.03516,-0.01332 -0.03516,-0.03516 V 10.75 c 0,-0.02183 0.01332,-0.03516 0.03516,-0.03516 z"
       id="rect6-7" /></g></svg>
