<?xml version="1.0" encoding="UTF-8" standalone="no"?>
<!-- Created with Inkscape (http://www.inkscape.org/) -->

<svg
   width="100"
   height="100"
   viewBox="0 0 26.458333 26.458333"
   version="1.1"
   id="svg1"
   xml:space="preserve"
   inkscape:version="1.4.2 (f4327f4, 2025-05-13)"
   sodipodi:docname="LeftHandedLayout.svg"
   inkscape:export-filename="Explorer.png"
   inkscape:export-xdpi="96"
   inkscape:export-ydpi="96"
   xmlns:inkscape="http://www.inkscape.org/namespaces/inkscape"
   xmlns:sodipodi="http://sodipodi.sourceforge.net/DTD/sodipodi-0.dtd"
   xmlns="http://www.w3.org/2000/svg"
   xmlns:svg="http://www.w3.org/2000/svg"><sodipodi:namedview
     id="namedview1"
     pagecolor="#ffffff"
     bordercolor="#666666"
     borderopacity="1.0"
     inkscape:showpageshadow="2"
     inkscape:pageopacity="0.0"
     inkscape:pagecheckerboard="0"
     inkscape:deskcolor="#d1d1d1"
     inkscape:document-units="mm"
     showgrid="false"
     inkscape:zoom="5.6568542"
     inkscape:cx="61.076348"
     inkscape:cy="62.490562"
     inkscape:window-width="2560"
     inkscape:window-height="1377"
     inkscape:window-x="1912"
     inkscape:window-y="100"
     inkscape:window-maximized="1"
     inkscape:current-layer="layer1"><inkscape:grid
       id="grid1"
       units="mm"
       originx="0"
       originy="0"
       spacingx="0.26458333"
       spacingy="0.26458334"
       empcolor="#3f3fff"
       empopacity="0.25098039"
       color="#3f3fff"
       opacity="0.1254902"
       empspacing="5"
       enabled="true"
       visible="false" /></sodipodi:namedview><defs
     id="defs1"><inkscape:path-effect
       effect="fillet_chamfer"
       id="path-effect2"
       is_visible="true"
       lpeversion="1"
       nodesatellites_param="F,0,0,1,0,0.74796593,0,1 @ F,0,0,1,0,1.0583336,0,1 @ F,0,0,1,0,0,0,1 @ F,0,0,1,0,0,0,1 @ F,0,0,1,0,0,0,1"
       radius="0"
       unit="px"
       method="auto"
       mode="F"
       chamfer_steps="1"
       flexible="false"
       use_knot_distance="true"
       apply_no_radius="true"
       apply_with_radius="true"
       only_selected="false"
       hide_knots="false" /><inkscape:path-effect
       effect="fillet_chamfer"
       id="path-effect1"
       is_visible="true"
       lpeversion="1"
       nodesatellites_param="F,0,0,1,0,0,0,1 @ F,0,0,1,0,0.716049,0,1 @ F,0,0,1,0,0.82923799,0,1 @ F,0,0,1,0,1.0906531,0,1 @ F,0,0,1,0,1.2973401,0,1 @ F,0,0,1,0,0.83649622,0,1 @ F,0,0,1,0,1.0856655,0,1 @ F,0,0,1,0,3.3452086,0,1 @ F,0,0,1,0,3.3537328,0,1 @ F,0,0,1,0,0,0,1"
       radius="0"
       unit="px"
       method="auto"
       mode="F"
       chamfer_steps="1"
       flexible="false"
       use_knot_distance="true"
       apply_no_radius="true"
       apply_with_radius="true"
       only_selected="false"
       hide_knots="false" /><inkscape:path-effect
       effect="fillet_chamfer"
       id="path-effect1-2"
       is_visible="true"
       lpeversion="1"
       nodesatellites_param="F,0,0,1,0,0,0,1 @ F,0,0,1,0,3.1750003,0,1 @ F,0,0,1,0,3.3452086,0,1 @ F,0,0,1,0,1.0856655,0,1 @ F,0,0,1,0,0.83649622,0,1 @ F,0,0,1,0,1.2973401,0,1 @ F,0,0,1,0,1.0906531,0,1 @ F,0,0,1,0,0.82923799,0,1 @ F,0,0,1,0,0.716049,0,1 @ F,0,0,1,0,0,0,1"
       radius="0"
       unit="px"
       method="auto"
       mode="F"
       chamfer_steps="1"
       flexible="false"
       use_knot_distance="true"
       apply_no_radius="true"
       apply_with_radius="true"
       only_selected="false"
       hide_knots="false" /></defs><g
     inkscape:label="Layer 1"
     inkscape:groupmode="layer"
     id="layer1"><path
       id="path1"
       style="baseline-shift:baseline;display:inline;overflow:visible;opacity:1;vector-effect:none;enable-background:accumulate;stop-color:#000000;stop-opacity:1"
       d="m 6.1365751,0.65732422 c 0.085347,-0.001758 0.171585,0.002794 0.257349,0.0144694 0.343054,0.0467032 0.68043,0.20198444 0.935343,0.48420818 l 2.9181679,3.2308105 c 0.177406,0.1964141 0.358176,0.2032917 0.546737,0.1307414 0.188562,-0.07255 0.318327,-0.1983485 0.318327,-0.4630208 V 3.96875 h 1.588016 v 0.085783 c 1e-6,0.9116209 -0.591745,1.6531438 -1.323433,1.94045 V 7.9375 h 3.175 v 2.38125 h -3.175 v 3.439583 l -2.1636919,0.02222 -0.198954,-0.663008 c -0.039406,0.205332 -0.094377,0.408433 -0.165365,0.607198 l -1.999878,5.597591 c -0.01278,0.03578 0.049674,0.195127 0.075964,0.208773 5.8492969,3.036571 10.4214269,4.026863 15.4393679,4.535123 L 16.491499,13.244153 c -0.42374,-0.780753 -0.564644,-1.68586 -0.398426,-2.5585 l 0.699182,-3.6700606 c 0.01228,-0.064446 -0.01701,-0.1106975 -0.0801,-0.1286743 L 15.411461,6.5158813 C 14.683976,6.3086037 14.154303,5.6711515 14.083377,4.9180461 l -0.05684,-0.6092652 1.580265,-0.1503784 0.05684,0.6113322 c 0.01004,0.1065747 0.08051,0.1892588 0.183451,0.2185913 l 1.300696,0.3710368 c 0.839929,0.2393162 1.366443,1.0954366 1.203028,1.9533691 l -0.699183,3.6695431 c -0.09773,0.513095 -0.01454,1.045234 0.234611,1.504301 l 5.972246,11.003463 c 0.256643,0.472874 0.354127,1.087106 0.02584,1.588017 -0.328289,0.500911 -0.937668,0.656441 -1.474845,0.603581 C 17.197805,25.168784 12.300502,24.109153 6.1944531,20.93929 5.4007261,20.527238 5.0567261,19.623394 5.3547111,18.789034 l 1.999878,-5.597591 c 0.180299,-0.504836 0.193315,-1.054921 0.039274,-1.56838 L 4.6984201,2.6385986 C 4.4798631,1.9100687 4.8602041,1.1620707 5.4213731,0.8459432 5.6318111,0.72739539 5.8805351,0.66259956 6.1365751,0.65732422 Z" /><path
       id="path4"
       style="opacity:1;stroke-width:1.05833;stroke-linecap:round;stroke-opacity:0.636364;paint-order:markers fill stroke"
       d="m 8.8222671,14.777665 a 0.52522123,0.52916634 0 0 0 0.525221,0.529166 0.52522123,0.52916634 0 0 0 0.525222,-0.529166 0.52522123,0.52916634 0 0 0 -0.525222,-0.529166 0.52522123,0.52916634 0 0 0 -0.525221,0.529166 z" /><path
       id="path4-2"
       style="stroke-width:1.05833;stroke-linecap:round;stroke-opacity:0.636364;paint-order:markers fill stroke"
       d="m 9.3084311,16.391729 a 0.52522123,0.52916634 0 0 0 0.525221,0.529167 0.52522123,0.52916634 0 0 0 0.5252219,-0.529167 0.52522123,0.52916634 0 0 0 -0.5252219,-0.529166 0.52522123,0.52916634 0 0 0 -0.525221,0.529166 z" /><path
       id="path4-7"
       style="stroke-width:1.05833;stroke-linecap:round;stroke-opacity:0.636364;paint-order:markers fill stroke"
       d="m 9.8028521,18.033207 a 0.52522123,0.52916634 0 0 0 0.5252209,0.529166 0.52522123,0.52916634 0 0 0 0.525222,-0.529166 0.52522123,0.52916634 0 0 0 -0.525222,-0.529166 0.52522123,0.52916634 0 0 0 -0.5252209,0.529166 z" /></g></svg>
