<?xml version="1.0" encoding="UTF-8" standalone="no"?>
<!-- Created with Inkscape (http://www.inkscape.org/) -->

<svg
   width="100"
   height="100"
   viewBox="0 0 26.458333 26.458333"
   version="1.1"
   id="svg1"
   xml:space="preserve"
   xmlns="http://www.w3.org/2000/svg"
   xmlns:svg="http://www.w3.org/2000/svg"><defs
     id="defs1" /><g
     id="layer1"><path
       id="path1"
       style="baseline-shift:baseline;display:inline;overflow:visible;vector-effect:none;enable-background:accumulate;stop-color:#000000;stop-opacity:1;opacity:1"
       d="M 20.321757 0.65732422 C 20.23641 0.65556577 20.150172 0.66011783 20.064408 0.67179362 C 19.721354 0.71849682 19.383978 0.87377806 19.129065 1.1560018 L 16.210897 4.3868123 C 16.033491 4.5832264 15.852721 4.590104 15.66416 4.5175537 C 15.475598 4.4450037 15.345833 4.3192052 15.345833 4.0545329 L 15.345833 3.96875 L 13.757817 3.96875 L 13.757817 4.0545329 C 13.757816 4.9661538 14.349562 5.7076767 15.08125 5.9949829 L 15.08125 7.9375 L 11.90625 7.9375 L 11.90625 10.31875 L 15.08125 10.31875 L 15.08125 13.758333 L 17.244942 13.780554 L 17.443896 13.117546 C 17.483302 13.322878 17.538273 13.525979 17.609261 13.724744 L 19.609139 19.322335 C 19.621919 19.358115 19.559465 19.517462 19.533175 19.531108 C 13.683878 22.567679 9.1117481 23.557971 4.093807 24.066231 L 9.9668335 13.244153 C 10.390573 12.4634 10.531477 11.558293 10.365259 10.685653 L 9.6660767 7.0155924 C 9.6538014 6.9511468 9.6830819 6.9048949 9.7461751 6.8869181 L 11.046871 6.5158813 C 11.774356 6.3086037 12.304029 5.6711515 12.374955 4.9180461 L 12.431799 4.3087809 L 10.851534 4.1584025 L 10.79469 4.7697347 C 10.78465 4.8763094 10.714183 4.9589935 10.611239 4.988326 L 9.3105428 5.3593628 C 8.4706139 5.598679 7.9440998 6.4547994 8.1075155 7.3127319 L 8.8066976 10.982275 C 8.9044306 11.49537 8.8212366 12.027509 8.5720866 12.486576 L 2.5998413 23.490039 C 2.3431976 23.962913 2.245714 24.577145 2.5740031 25.078056 C 2.9022925 25.578967 3.5116714 25.734497 4.0488485 25.681637 C 9.2605272 25.168784 14.15783 24.109153 20.263879 20.93929 C 21.057606 20.527238 21.401606 19.623394 21.103621 18.789034 L 19.103743 13.191443 C 18.923444 12.686607 18.910428 12.136522 19.064469 11.623063 L 21.759912 2.6385986 C 21.978469 1.9100687 21.598128 1.1620707 21.036959 0.8459432 C 20.826521 0.72739539 20.577797 0.66259956 20.321757 0.65732422 z " /><path
       id="path4"
       style="opacity:1;stroke-width:1.05833;stroke-linecap:round;stroke-opacity:0.636364;paint-order:markers fill stroke"
       d="m 17.636065,14.777665 a 0.52522123,0.52916634 0 0 1 -0.525221,0.529166 0.52522123,0.52916634 0 0 1 -0.525222,-0.529166 0.52522123,0.52916634 0 0 1 0.525222,-0.529166 0.52522123,0.52916634 0 0 1 0.525221,0.529166 z" /><path
       id="path4-2"
       style="stroke-width:1.05833;stroke-linecap:round;stroke-opacity:0.636364;paint-order:markers fill stroke"
       d="m 17.149901,16.391729 a 0.52522123,0.52916634 0 0 1 -0.525221,0.529167 0.52522123,0.52916634 0 0 1 -0.525222,-0.529167 0.52522123,0.52916634 0 0 1 0.525222,-0.529166 0.52522123,0.52916634 0 0 1 0.525221,0.529166 z" /><path
       id="path4-7"
       style="stroke-width:1.05833;stroke-linecap:round;stroke-opacity:0.636364;paint-order:markers fill stroke"
       d="m 16.65548,18.033207 a 0.52522123,0.52916634 0 0 1 -0.525221,0.529166 0.52522123,0.52916634 0 0 1 -0.525222,-0.529166 0.52522123,0.52916634 0 0 1 0.525222,-0.529166 0.52522123,0.52916634 0 0 1 0.525221,0.529166 z" /></g></svg>
