<?xml version="1.0" encoding="UTF-8" standalone="no"?>
<!-- Created with Inkscape (http://www.inkscape.org/) -->

<svg
   width="32"
   height="32"
   viewBox="0 0 32 32"
   version="1.1"
   id="svg1"
   xml:space="preserve"
   xmlns="http://www.w3.org/2000/svg"
   xmlns:svg="http://www.w3.org/2000/svg"><defs
     id="defs1" /><path
     style="baseline-shift:baseline;display:inline;overflow:visible;vector-effect:none;stroke-linecap:square;enable-background:accumulate;stop-color:#000000;stop-opacity:1;opacity:1"
     d="m 12.75,21.75 v 0.5 h 0.25 6 0.25 v -0.5 H 19 13 Z"
     id="path20" /><path
     id="path21"
     style="display:inline;fill:#000000;stroke:none;stroke-width:1px;stroke-linecap:butt;stroke-linejoin:miter;stroke-opacity:1"
     d="M 15.199219 1 A 1.2 1 0 0 0 14 2 L 14 7.6738281 C 8.6060539 8.6219869 4.5 13.336713 4.5 19 C 4.5 24.811013 8.8222072 29.623285 14.423828 30.392578 A 0.72629937 0.72629937 0 0 0 15.140625 31 L 16.859375 31 A 0.72629937 0.72629937 0 0 0 17.576172 30.392578 C 23.177793 29.623285 27.5 24.811013 27.5 19 C 27.5 13.336713 23.393946 8.621987 18 7.6738281 L 18 2 A 1.2 1 0 0 0 16.800781 1 L 15.199219 1 z M 14 8.6894531 L 14 9.4550781 C 9.5763899 10.378539 6.25 14.303603 6.25 19 C 6.25 23.766193 9.6753165 27.737824 14.197266 28.583984 L 14.294922 29.363281 C 9.3025694 28.550405 5.5 24.224398 5.5 19 C 5.5 13.879121 9.1537729 9.6216575 14 8.6894531 z M 18 8.6894531 C 22.846227 9.6216575 26.5 13.879121 26.5 19 C 26.5 24.224398 22.697431 28.550405 17.705078 29.363281 L 17.802734 28.583984 C 22.324683 27.737824 25.75 23.766193 25.75 19 C 25.75 14.303603 22.42361 10.378539 18 9.4550781 L 18 8.6894531 z M 16 9.75 C 21.111595 9.75 25.25 13.888405 25.25 19 C 25.25 23.471855 22.082558 27.199638 17.867188 28.0625 L 17.919922 27.636719 A 0.56600833 0.56600833 0 0 0 17.359375 27 L 14.640625 27 A 0.56600833 0.56600833 0 0 0 14.080078 27.636719 L 14.132812 28.0625 C 9.9174419 27.199638 6.75 23.471855 6.75 19 C 6.75 13.888405 10.888405 9.75 16 9.75 z " /></svg>
