<?xml version="1.0" encoding="UTF-8" standalone="no"?>
<!-- Created with Inkscape (http://www.inkscape.org/) -->

<svg
   width="32"
   height="32"
   viewBox="0 0 32 32"
   version="1.1"
   id="svg1"
   xml:space="preserve"
   xmlns="http://www.w3.org/2000/svg"
   xmlns:svg="http://www.w3.org/2000/svg"><defs
     id="defs1" /><path
     id="path13"
     style="baseline-shift:baseline;display:inline;overflow:visible;vector-effect:none;enable-background:accumulate;stop-color:#000000;stop-opacity:1;opacity:1"
     d="M 10 0.5 C 9.3511101 0.5 8.7961286 0.81895334 8.421875 1.265625 C 8.0476214 1.7122967 7.8151901 2.2740699 7.6484375 2.8730469 C 7.3149324 4.0710008 7.2578125 5.4358427 7.2578125 6.34375 C 7.2578125 8.1498333 7.6904134 9.5422979 8.1015625 10.777344 C 8.5127116 12.012389 8.8945311 13.082978 8.8945312 14.34375 C 8.8945312 15.809179 8.179183 17.307926 7.4375 18.904297 C 6.6852663 20.523377 5.8867188 22.493994 5.8867188 24 C 5.8867188 25.805386 6.3065416 27.685321 7.5664062 29.125 C 8.826271 30.564679 10.90153 31.5 14 31.5 L 18 31.5 C 21.092882 31.5 23.234357 30.629686 24.591797 29.361328 C 25.949236 28.092971 26.5 26.453615 26.5 25 C 26.5 22.4 25.707207 20.544525 24.943359 19.082031 C 24.179512 17.619537 23.5 16.554664 23.5 15.511719 C 23.5 14.602063 23.843115 13.844411 24.234375 12.923828 C 24.625635 12.003245 25.050781 10.928397 25.050781 9.5019531 C 25.050781 8.6670531 24.849074 7.8297658 24.451172 7.1582031 C 24.05327 6.4866405 23.402005 5.953125 22.583984 5.953125 C 21.991646 5.953125 21.548746 6.3725863 21.351562 6.7773438 C 21.15438 7.1821012 21.090025 7.6048504 21.03125 7.9023438 C 20.90196 8.5567482 20.678661 9.0796217 20.365234 9.4179688 C 20.051808 9.7563156 19.65671 9.9511719 19 9.9511719 C 18.797539 9.9511719 18.477449 9.7869067 18.107422 9.5410156 L 18.011719 2 A 1.0125776 1.0125776 0 0 0 17 1 L 15 1 A 1.0125776 1.0125776 0 0 0 13.988281 2 L 13.935547 6.21875 C 13.57685 6.3843676 13.258528 6.4988564 13.003906 6.5 L 13.001953 6.4980469 L 13 6.4980469 C 12.986261 6.4917826 12.932793 6.4682356 12.849609 6.3828125 C 12.738703 6.2689124 12.600261 6.0670954 12.472656 5.8125 C 12.217448 5.3033093 11.998031 4.5887893 11.896484 3.9238281 C 11.824168 3.4502781 11.8362 2.6796833 11.662109 1.9707031 C 11.575064 1.616213 11.436022 1.2600261 11.162109 0.97070312 C 10.888196 0.68138011 10.469115 0.5 10 0.5 z M 10 1.5 C 10.246982 1.5 10.340288 1.555522 10.4375 1.6582031 C 10.53471 1.760884 10.625828 1.9518245 10.689453 2.2109375 C 10.816704 2.7291635 10.813885 3.4585466 10.908203 4.0761719 C 11.025284 4.842857 11.260914 5.6288211 11.578125 6.2617188 C 11.73673 6.5781677 11.913818 6.8571262 12.132812 7.0820312 C 12.351805 7.3069364 12.638022 7.5 13 7.5 C 13.332714 7.5 13.637496 7.4249783 13.921875 7.3183594 L 13.902344 8.8457031 C 13.813874 8.8126356 13.724591 8.7796151 13.638672 8.7460938 C 13.454712 8.6743216 13.284872 8.5920096 13.234375 8.5527344 C 13.008194 8.3768155 12.820937 8.2658879 12.632812 8.2167969 C 12.444686 8.1677059 12.223134 8.2115969 12.095703 8.3496094 C 11.968273 8.4876251 11.929636 8.6573422 11.912109 8.8359375 C 11.894579 9.0145328 11.903711 9.2133451 11.925781 9.4296875 C 12.014161 10.295057 12.32789 11.470019 12.390625 12.132812 C 12.559364 13.915525 12.201834 15.007025 11.808594 16.052734 C 11.415354 17.098444 10.975334 18.109574 11.064453 19.59375 C 11.155353 21.107582 11.775914 22.031274 12.673828 22.521484 C 13.571742 23.011694 14.702373 23.092719 15.861328 23.089844 C 17.020283 23.086944 18.215286 22.995341 19.222656 23.082031 C 20.230026 23.168701 21.016397 23.424571 21.462891 24.066406 C 22.224783 25.161626 22.322432 26.263403 22.099609 27.365234 C 21.905855 28.323325 21.461137 29.272092 20.988281 30.154297 C 20.143889 30.373446 19.154104 30.5 18 30.5 L 14 30.5 C 11.09847 30.5 9.3654657 29.663352 8.3183594 28.466797 C 7.2712531 27.270242 6.8867187 25.649679 6.8867188 24 C 6.8867188 22.881656 7.6141385 20.896561 8.34375 19.326172 C 9.0794434 17.742693 9.8945312 16.123587 9.8945312 14.34375 C 9.8945312 12.882721 9.4572244 11.681846 9.0507812 10.460938 C 8.644338 9.2400274 8.2578125 7.9920446 8.2578125 6.34375 C 8.2578125 5.4812641 8.3242125 4.1739009 8.6113281 3.1425781 C 8.754886 2.6269167 8.9559739 2.1849075 9.1894531 1.90625 C 9.4229324 1.6275925 9.6488899 1.5 10 1.5 z M 22.583984 6.953125 C 22.975487 6.953125 23.306806 7.1902694 23.589844 7.6679688 C 23.872882 8.1456682 24.050781 8.8351058 24.050781 9.5019531 C 24.050781 10.734073 23.698125 11.630475 23.314453 12.533203 C 22.930781 13.435932 22.5 14.352368 22.5 15.511719 C 22.5 16.956618 23.320488 18.135455 24.056641 19.544922 C 24.792793 20.954389 25.5 22.6 25.5 25 C 25.5 26.202635 25.050764 27.563279 23.908203 28.630859 C 23.345381 29.156747 22.608246 29.618398 21.658203 29.951172 C 22.053981 29.173732 22.413321 28.335773 22.589844 27.462891 C 22.83178 26.266546 22.717138 24.991823 21.875 23.78125 C 21.307187 22.965019 20.335433 22.676031 19.265625 22.583984 C 18.195817 22.491934 16.993915 22.586944 15.861328 22.589844 C 14.728741 22.592644 13.673549 22.498624 12.914062 22.083984 C 12.154575 21.669348 11.646354 20.958984 11.5625 19.5625 C 11.48 18.188564 11.876383 17.291515 12.275391 16.230469 C 12.674398 15.169422 13.065652 13.95572 12.888672 12.085938 C 12.817062 11.32937 12.504365 10.167447 12.423828 9.3789062 C 12.403698 9.181771 12.397956 9.0090751 12.410156 8.8847656 C 12.420831 8.7759949 12.45114 8.7087171 12.460938 8.6914062 L 12.462891 8.6894531 L 12.462891 8.6875 C 12.46569 8.6884746 12.473736 8.6903253 12.507812 8.6992188 C 12.582263 8.7186478 12.730438 8.7938128 12.927734 8.9472656 C 13.077064 9.0634108 13.261355 9.1365473 13.457031 9.2128906 C 13.611523 9.2731656 13.752305 9.3262998 13.880859 9.3769531 L 13.894531 9.4980469 L 13.875 11 C 13.8708 11.331369 14.120591 11.688353 14.441406 11.771484 C 14.86101 11.880214 15.450553 12 16 12 C 16.549372 12 17.13876 11.878334 17.558594 11.769531 C 17.878979 11.686501 18.129168 11.331369 18.125 11 L 18.121094 10.734375 C 18.385182 10.864105 18.674068 10.951172 19 10.951172 C 19.880507 10.951172 20.606188 10.630309 21.099609 10.097656 C 21.593031 9.5650036 21.862444 8.8630964 22.013672 8.0976562 C 22.076112 7.781601 22.146881 7.4305246 22.251953 7.2148438 C 22.357025 6.999163 22.385245 6.953125 22.583984 6.953125 z " /><rect
     style="font-variation-settings:normal;display:inline;vector-effect:none;fill:#000000;fill-opacity:1;stroke:none;stroke-width:1.49999;stroke-linecap:round;stroke-linejoin:miter;stroke-miterlimit:4;stroke-dasharray:none;stroke-dashoffset:0;stroke-opacity:1;-inkscape-stroke:none;paint-order:markers fill stroke"
     id="rect13-2-6"
     width="6"
     height="3"
     x="13"
     y="26.5"
     rx="0.5"
     ry="0.5" /><rect
     style="font-variation-settings:normal;display:inline;vector-effect:none;fill:#000000;fill-opacity:1;stroke:none;stroke-width:1.49999;stroke-linecap:round;stroke-linejoin:miter;stroke-miterlimit:4;stroke-dasharray:none;stroke-dashoffset:0;stroke-opacity:1;-inkscape-stroke:none;paint-order:markers fill stroke"
     id="rect13-2"
     width="4"
     height="2"
     x="15"
     y="19"
     rx="0.5"
     ry="0.5" /><rect
     style="font-variation-settings:normal;vector-effect:none;fill:#000000;fill-opacity:1;stroke:none;stroke-width:1.49999;stroke-linecap:round;stroke-linejoin:miter;stroke-miterlimit:4;stroke-dasharray:none;stroke-dashoffset:0;stroke-opacity:1;-inkscape-stroke:none;paint-order:markers fill stroke"
     id="rect13"
     width="4"
     height="2"
     x="13"
     y="17"
     rx="0.5"
     ry="0.5" /></svg>
