<?xml version="1.0" encoding="UTF-8" standalone="no"?>
<!-- Created with Inkscape (http://www.inkscape.org/) -->

<svg
   width="32"
   height="32"
   viewBox="0 0 32 32"
   version="1.1"
   id="svg1"
   xml:space="preserve"
   xmlns="http://www.w3.org/2000/svg"
   xmlns:svg="http://www.w3.org/2000/svg"><defs
     id="defs1" /><path
     id="path9-2-1"
     style="display:inline;fill:#000000;fill-opacity:1;stroke:none;stroke-width:1px;stroke-linecap:butt;stroke-linejoin:miter;stroke-opacity:1"
     d="M 9 0.5 C 8.2892847 0.5 7.6269665 0.96225711 7.1914062 1.7265625 C 6.755846 2.4908679 6.5 3.5712232 6.5 5 C 6.5 7.0545038 6.9451494 8.6253715 7.3769531 9.8984375 C 7.8087568 11.171503 8.2011719 12.141807 8.2011719 13 C 8.2011719 14.320392 7.4347518 16.04908 6.6210938 18.0625 C 5.8074357 20.07592 4.96875 22.392235 4.96875 25 C 4.96875 27.480621 6.2392433 29.187725 7.9882812 30.173828 C 9.7373193 31.159931 11.943142 31.5 14 31.5 L 18 31.5 C 20.566667 31.5 22.774846 30.992288 24.371094 29.771484 C 25.967342 28.55068 26.884766 26.612797 26.884766 24 C 26.884766 21.875244 26.096447 19.956594 25.339844 18.330078 C 24.58324 16.703563 23.890625 15.322549 23.890625 14.529297 C 23.890625 13.528281 24.259328 12.525297 24.662109 11.458984 C 25.064891 10.392672 25.5 9.262378 25.5 8 C 25.5 7.4014936 25.437834 6.613479 25.183594 5.9101562 C 25.056474 5.558495 24.880616 5.221933 24.605469 4.953125 C 24.330322 4.684317 23.935701 4.5 23.5 4.5 C 23.181028 4.5 22.875963 4.6005024 22.650391 4.78125 C 22.424818 4.9619976 22.285542 5.1965378 22.1875 5.4316406 C 21.991417 5.9018464 21.926028 6.4130123 21.814453 6.8847656 C 21.702879 7.356519 21.554043 7.7685679 21.308594 8.0390625 C 21.063145 8.3095571 20.721127 8.5 20 8.5 C 19.487237 8.5 18.622229 8.3139585 18.066406 8.1679688 C 18.039974 8.161026 17.998571 8.1229999 17.958984 8.0761719 C 17.958346 8.0754168 17.957669 8.0749789 17.957031 8.0742188 L 17.822266 2 A 1.2225709 1.0188091 0 0 0 16.599609 1 L 15.400391 1 A 1.2225709 1.0188091 0 0 0 14.177734 2 L 14.119141 4.6445312 L 14.064453 4.890625 C 14.041 4.9961747 13.880322 5.2579888 13.652344 5.4453125 C 13.424366 5.6326362 13.141788 5.7421875 13 5.7421875 C 12.578232 5.7421875 12.032471 5.6436145 11.5625 5.2695312 C 11.092529 4.8954477 10.652618 4.2318036 10.496094 2.9394531 C 10.458925 2.6325701 10.47832 2.1075007 10.341797 1.59375 C 10.273535 1.3368746 10.158525 1.0663794 9.9296875 0.84765625 C 9.7008502 0.62893311 9.3615879 0.5 9 0.5 z M 9 1.5 C 9.1604416 1.5 9.195741 1.5296535 9.2382812 1.5703125 C 9.2808213 1.6109725 9.3349713 1.7009314 9.375 1.8515625 C 9.455057 2.1528246 9.4514549 2.6274814 9.5039062 3.0605469 C 9.6833187 4.5418745 10.243409 5.4987035 10.939453 6.0527344 C 11.635497 6.6067653 12.421768 6.7421875 13 6.7421875 C 13.404638 6.7421875 13.766614 6.5901027 14.080078 6.375 L 14.052734 7.609375 C 13.323835 7.3148082 12.737023 7.0296256 12.283203 6.9101562 C 12.120112 6.8672222 11.970644 6.8411798 11.816406 6.8652344 C 11.662169 6.8892894 11.500664 6.9896075 11.419922 7.1367188 C 11.258437 7.4309413 11.312453 7.7868192 11.445312 8.3398438 C 12.047773 10.847556 11.697533 12.363718 11.263672 13.822266 C 10.82981 15.280813 10.295553 16.694069 10.611328 18.818359 C 10.734899 19.649651 11.126748 20.407698 11.873047 20.9375 C 12.619346 21.467302 13.6991 21.767578 15.191406 21.767578 C 17.88879 21.767578 19.07319 21.697077 19.738281 21.779297 C 20.070827 21.820407 20.266818 21.88857 20.507812 22.03125 C 20.748808 22.17393 21.032443 22.398844 21.474609 22.730469 C 21.841707 23.005792 22.270736 23.497415 22.705078 24.011719 C 23.139421 24.526022 23.582648 25.064259 24.033203 25.451172 C 24.25848 25.644628 24.485127 25.802322 24.728516 25.894531 C 24.971905 25.986741 25.241426 26.007184 25.492188 25.90625 C 25.569657 25.875068 25.642495 25.8349 25.712891 25.785156 C 25.415305 27.204601 24.74007 28.23177 23.763672 28.978516 C 22.417959 30.007712 20.433333 30.5 18 30.5 L 14 30.5 C 12.056858 30.5 9.9970557 30.157782 8.4804688 29.302734 C 6.9638816 28.447687 5.96875 27.154777 5.96875 25 C 5.96875 22.607765 6.7460166 20.42408 7.5488281 18.4375 C 8.3516397 16.45092 9.2011719 14.679608 9.2011719 13 C 9.2011719 11.858193 8.7432597 10.81161 8.3242188 9.5761719 C 7.9051777 8.3407338 7.5 6.9114801 7.5 5 C 7.5 3.6930686 7.744154 2.7724707 8.0585938 2.2207031 C 8.3730334 1.6689356 8.7107153 1.5 9 1.5 z M 23.5 5.5 C 23.681663 5.5 23.784439 5.550917 23.90625 5.6699219 C 24.028061 5.788927 24.148712 5.9914109 24.242188 6.25 C 24.429139 6.7671783 24.5 7.48051 24.5 8 C 24.5 9.028034 24.128897 10.040339 23.726562 11.105469 C 23.324229 12.170598 22.890625 13.288822 22.890625 14.529297 C 22.890625 15.804954 23.69312 17.160113 24.433594 18.751953 C 25.174068 20.343793 25.884766 22.124756 25.884766 24 C 25.884766 24.260812 25.875665 24.51241 25.857422 24.753906 C 25.664334 25.174614 25.467239 25.376763 25.306641 25.441406 C 25.185655 25.490106 25.06614 25.486361 24.90625 25.425781 C 24.74636 25.365201 24.556526 25.241293 24.357422 25.070312 C 23.959213 24.728352 23.522211 24.206042 23.085938 23.689453 C 22.649666 23.172865 22.217344 22.663496 21.775391 22.332031 C 21.338737 22.004541 21.052189 21.772379 20.763672 21.601562 C 20.475154 21.430747 20.181666 21.33053 19.798828 21.283203 C 19.033153 21.188553 17.879339 21.267578 15.191406 21.267578 C 13.766455 21.267578 12.796849 20.98047 12.164062 20.53125 C 11.531275 20.08203 11.215476 19.471042 11.107422 18.744141 C 10.8082 16.731212 11.301648 15.445836 11.742188 13.964844 C 12.182726 12.483851 12.553577 10.819564 11.929688 8.2226562 C 11.805672 7.7064474 11.834582 7.4205353 11.857422 7.3789062 C 11.860277 7.3737027 11.862595 7.3675504 11.863281 7.3652344 L 11.863281 7.3632812 L 11.865234 7.3632812 L 11.867188 7.3632812 C 11.870783 7.3625932 11.877481 7.3617304 11.892578 7.359375 C 11.932848 7.353095 12.027791 7.3587612 12.15625 7.3925781 C 12.542134 7.4941632 13.197354 7.8168441 14.041016 8.1445312 L 14.017578 9.1660156 A 0.9817243 0.81810358 0 0 0 15 10 L 17 10 A 0.9817243 0.81810358 0 0 0 17.982422 9.1796875 C 18.561121 9.3270656 19.341521 9.5 20 9.5 C 20.923774 9.5 21.613721 9.1904429 22.048828 8.7109375 C 22.483935 8.2314321 22.664127 7.643481 22.789062 7.1152344 C 22.913998 6.5869877 22.992696 6.0981536 23.109375 5.8183594 C 23.167714 5.6784622 23.227964 5.6005024 23.275391 5.5625 C 23.322818 5.5244976 23.364317 5.5 23.5 5.5 z " /><path
     style="baseline-shift:baseline;display:inline;overflow:visible;vector-effect:none;stroke-linecap:round;enable-background:accumulate;stop-color:#000000;stop-opacity:1;opacity:1"
     d="m 13.884766,17.875 a 0.74999499,0.74999499 0 0 0 -0.873047,0.603516 0.74999499,0.74999499 0 0 0 0.603515,0.873046 l 4.5,0.816407 a 0.74999499,0.74999499 0 0 0 0.873047,-0.603516 0.74999499,0.74999499 0 0 0 -0.603515,-0.871094 z"
     id="path12-4" /><path
     style="baseline-shift:baseline;display:inline;overflow:visible;vector-effect:none;stroke-linecap:round;enable-background:accumulate;stop-color:#000000;stop-opacity:1;opacity:1"
     d="m 13.75,14.615234 a 0.74999499,0.74999499 0 0 0 -0.75,0.75 0.74999499,0.74999499 0 0 0 0.75,0.75 h 4.492187 a 0.74999499,0.74999499 0 0 0 0.75,-0.75 0.74999499,0.74999499 0 0 0 -0.75,-0.75 z"
     id="path12-1" /><path
     style="baseline-shift:baseline;display:inline;overflow:visible;vector-effect:none;stroke-linecap:round;enable-background:accumulate;stop-color:#000000;stop-opacity:1;opacity:1"
     d="m 13.75,10.615234 a 0.75,0.75 0 0 0 -0.75,0.75 0.75,0.75 0 0 0 0.75,0.75 h 4.5 a 0.75,0.75 0 0 0 0.75,-0.75 0.75,0.75 0 0 0 -0.75,-0.75 z"
     id="path12" /><path
     id="rect12"
     style="font-variation-settings:normal;vector-effect:none;fill:#000000;fill-opacity:1;stroke:none;stroke-width:1.49999;stroke-linecap:round;stroke-linejoin:miter;stroke-miterlimit:4;stroke-dasharray:none;stroke-dashoffset:0;stroke-opacity:1;-inkscape-stroke:none;paint-order:markers fill stroke"
     d="M 13.5 21 C 13.223 21 13 21.223 13 21.5 L 13 23.5 C 13 23.777 13.223 24 13.5 24 L 14 24 L 18.5 24 L 19 24 C 19.277 24 19.5 23.777 19.5 23.5 L 19.5 22.5 C 19.5 22.223 19.277 22 19 22 L 19 21.5 C 19 21.223 18.777 21 18.5 21 L 13.5 21 z " /></svg>
