<?xml version="1.0" encoding="UTF-8" standalone="no"?>
<!-- Created with Inkscape (http://www.inkscape.org/) -->

<svg
   width="32"
   height="32"
   viewBox="0 0 32 32"
   version="1.1"
   id="svg1"
   xml:space="preserve"
   xmlns="http://www.w3.org/2000/svg"
   xmlns:svg="http://www.w3.org/2000/svg"><defs
     id="defs1" /><path
     id="path4-63"
     style="baseline-shift:baseline;display:inline;overflow:visible;vector-effect:none;stroke-linecap:round;stroke-linejoin:round;paint-order:markers fill stroke;enable-background:accumulate;stop-color:#000000"
     d="M 15.486328 1 A 1.216746 1.013955 0 0 0 14.269531 2 L 14.244141 3.5234375 C 13.063851 3.5749916 11.8953 3.703876 10.857422 4.0039062 C 9.9280963 4.2725561 9.0914312 4.6838313 8.4765625 5.3398438 C 7.8616938 5.9958563 7.5 6.8960447 7.5 8 C 7.5 9.4483942 7.8840422 10.399381 8.234375 11.162109 C 8.5847078 11.924838 8.875 12.474013 8.875 13.359375 C 8.875 13.754774 8.6623469 14.250187 8.2734375 14.841797 C 7.8845281 15.433407 7.3404191 16.106879 6.7832031 16.878906 C 5.6687712 18.422961 4.5 20.390892 4.5 23 C 4.5 26.111111 5.5852745 28.325011 7.5976562 29.666016 C 9.610038 31.007021 12.455024 31.5 16.005859 31.5 C 19.556695 31.5 22.401681 31.007021 24.414062 29.666016 C 26.426444 28.325011 27.513672 26.111111 27.513672 23 C 27.513672 20.390892 26.344901 18.422961 25.230469 16.878906 C 24.673253 16.106879 24.127191 15.433407 23.738281 14.841797 C 23.349372 14.250187 23.136719 13.754774 23.136719 13.359375 C 23.136719 12.472926 23.434453 11.78808 23.773438 11.041016 C 24.112424 10.293951 24.5 9.4822471 24.5 8.453125 C 24.5 7.9616392 24.393716 7.4752648 24.078125 7.09375 C 23.762534 6.7122352 23.249182 6.5 22.65625 6.5 C 21.989583 6.5 21.510641 6.8325638 21.125 7.078125 C 20.739359 7.3236862 20.443715 7.5 20 7.5 C 19.166667 7.5 18.602569 7.1183381 18.175781 6.4746094 C 18.022588 6.2435467 17.893895 5.9763954 17.791016 5.6875 L 17.730469 2 A 1.216746 1.013955 0 0 0 16.513672 1 L 15.486328 1 z M 14.228516 4.5351562 L 14.154297 9.0292969 C 13.162583 9.6485014 12.5 10.749448 12.5 12 C 12.5 13.927074 14.072926 15.5 16 15.5 C 17.927074 15.5 19.5 13.927074 19.5 12 C 19.5 10.749441 18.837427 9.6484993 17.845703 9.0292969 L 17.822266 7.6074219 C 18.377399 8.148146 19.119644 8.5 20 8.5 C 20.72816 8.5 21.262527 8.1763138 21.662109 7.921875 C 22.061692 7.6674362 22.322917 7.5 22.65625 7.5 C 23.038199 7.5 23.196097 7.596426 23.308594 7.7324219 C 23.42109 7.8684178 23.5 8.1086733 23.5 8.453125 C 23.5 9.2308716 23.2056 9.8725428 22.863281 10.626953 C 22.520963 11.381364 22.136719 12.245824 22.136719 13.359375 C 22.136719 14.081163 22.470819 14.734188 22.902344 15.390625 C 23.333869 16.047062 23.883225 16.721246 24.419922 17.464844 C 25.493315 18.952039 26.513672 20.687233 26.513672 23 C 26.513672 25.888889 25.598623 27.674989 23.859375 28.833984 C 22.120127 29.992979 19.461545 30.5 16.005859 30.5 C 12.550174 30.5 9.891592 29.992979 8.1523438 28.833984 C 6.4130951 27.674989 5.5 25.888889 5.5 23 C 5.5 20.687233 6.5203567 18.952039 7.59375 17.464844 C 8.1304467 16.721246 8.6778499 16.047062 9.109375 15.390625 C 9.5409001 14.734188 9.875 14.081163 9.875 13.359375 C 9.875 12.244737 9.4800706 11.478914 9.1425781 10.744141 C 8.8050857 10.009368 8.5 9.2803498 8.5 8 C 8.5 7.1039553 8.7609854 6.4993303 9.2070312 6.0234375 C 9.6530772 5.5475447 10.315359 5.199765 11.134766 4.9628906 C 12.035771 4.7024274 13.110742 4.5846913 14.228516 4.5351562 z M 16 9.5 C 17.386634 9.5 18.5 10.613366 18.5 12 C 18.5 13.386634 17.386634 14.5 16 14.5 C 14.613366 14.5 13.5 13.386634 13.5 12 C 13.5 10.613366 14.613366 9.5 16 9.5 z " /><path
     id="path7-6"
     style="display:inline;fill:#000000;stroke:none;stroke-width:1px;stroke-linecap:butt;stroke-linejoin:miter;stroke-opacity:1"
     d="m 12,22.666016 v 1 c 1.020833,0.04167 1.403646,0.429687 2,1 h 2 2 c 0.596354,-0.570313 0.979167,-0.95833 2,-1 v -1 H 16 Z M 14.5,23 A 0.5,0.5 0 0 1 15,23.5 0.5,0.5 0 0 1 15.5,23 0.5,0.5 0 0 1 16,23.5 0.5,0.5 0 0 1 16.5,23 0.5,0.5 0 0 1 17,23.5 0.5,0.5 0 0 1 17.5,23 0.5,0.5 0 0 1 18,23.5 0.5,0.5 0 0 1 17.5,24 0.5,0.5 0 0 1 17,23.5 0.5,0.5 0 0 1 16.5,24 0.5,0.5 0 0 1 16,23.5 0.5,0.5 0 0 1 15.5,24 0.5,0.5 0 0 1 15,23.5 0.5,0.5 0 0 1 14.5,24 0.5,0.5 0 0 1 14,23.5 0.5,0.5 0 0 1 14.5,23 Z" /></svg>
