<?xml version="1.0" encoding="UTF-8" standalone="no"?>
<!-- Created with Inkscape (http://www.inkscape.org/) -->

<svg
   width="24pt"
   height="24pt"
   viewBox="0 0 24 24"
   version="1.1"
   id="svg1"
   xml:space="preserve"
   xmlns="http://www.w3.org/2000/svg"
   xmlns:svg="http://www.w3.org/2000/svg"><defs
     id="defs1" /><g
     id="layer9"
     style="display:inline"><path
       id="path126"
       style="baseline-shift:baseline;display:inline;overflow:visible;vector-effect:none;stroke-linecap:square;stroke-linejoin:bevel;enable-background:accumulate;stop-color:#000000;stop-opacity:1;opacity:1"
       d="M 9 1.9995117 L 7.9995117 3 L 7.9995117 21 L 9 22.000488 L 15 22.000488 L 16.000488 22.000488 L 16.000488 19.999512 L 15 19.999512 L 10.000488 19.999512 L 10.000488 18.024902 L 13.000488 18 L 12.991699 16.999512 L 10.000488 17.024414 L 10.000488 15.024902 L 13.000488 15 L 12.991699 13.999512 L 10.000488 14.024414 L 10.000488 12.499512 L 15 12.499512 L 15 11.500488 L 10.000488 11.500488 L 10.000488 9.9916992 L 13.000488 9.9667969 L 12.991699 8.9663086 L 10.000488 8.9912109 L 10.000488 7.0253906 L 13.000488 7.0004883 L 12.991699 6 L 10.000488 6.0249023 L 10.000488 4.0004883 L 15 4.0004883 L 16.000488 4.0004883 L 16.000488 1.9995117 L 15 1.9995117 L 9 1.9995117 z " /></g><style
     type="text/css"
     id="style1">
	.st0{fill:none;}
	.st1{clip-path:url(#SVGID_2_);}
	.st2{fill:none;stroke:#000000;stroke-width:0.25;stroke-miterlimit:10;}
	.st3{opacity:0.4;}
	.st4{clip-path:url(#SVGID_4_);fill:none;stroke:#000000;stroke-width:0.25;stroke-miterlimit:10;}
	.st5{clip-path:url(#SVGID_4_);}
	.st6{opacity:0.2;}
	.st7{display:none;}
</style></svg>
