<?xml version="1.0" encoding="UTF-8" standalone="no"?>
<!-- Created with Inkscape (http://www.inkscape.org/) -->

<svg
   width="24pt"
   height="24pt"
   viewBox="0 0 8.4666665 8.4666666"
   version="1.1"
   id="svg1"
   xml:space="preserve"
   xmlns="http://www.w3.org/2000/svg"
   xmlns:svg="http://www.w3.org/2000/svg"><defs
     id="defs1" /><path
     id="path2"
     style="stroke:none;stroke-width:1.5875;stroke-linecap:round;stroke-linejoin:round;paint-order:markers fill stroke"
     d="M 3.175,0.35295003 A 2.8222222,2.8222222 0 0 0 0.35295003,3.175 2.8222222,2.8222222 0 0 0 3.175,5.9970499 2.8222222,2.8222222 0 0 0 5.9970499,3.175 2.8222222,2.8222222 0 0 0 3.175,0.35295003 Z m 0,1.41076657 A 1.4111111,1.4111111 0 0 1 4.5862833,3.175 1.4111111,1.4111111 0 0 1 3.175,4.5862833 1.4111111,1.4111111 0 0 1 1.7637166,3.175 1.4111111,1.4111111 0 0 1 3.175,1.7637166 Z" /><path
     id="path4"
     style="baseline-shift:baseline;display:inline;overflow:visible;vector-effect:none;stroke-linecap:round;enable-background:accumulate;stop-color:#000000"
     d="M 5.2958007 3.3506998 A 0.17638899 0.17638899 0 0 0 5.2498087 3.3553507 A 0.17638899 0.17638899 0 0 0 5.1211344 3.5682576 L 5.6260131 5.6575357 L 3.2127238 5.1190673 A 0.17638899 0.17638899 0 0 0 3.0018839 5.2539428 A 0.17638899 0.17638899 0 0 0 3.1367594 5.4627156 L 5.7185139 6.0409749 L 5.8260009 6.4864257 A 0.17638899 0.17638899 0 0 0 6.0389078 6.6171671 A 0.17638899 0.17638899 0 0 0 6.1680989 6.4042602 L 6.1009195 6.1267577 L 6.2947061 6.1701659 A 0.17638899 0.17638899 0 0 0 6.5060627 6.0352904 A 0.17638899 0.17638899 0 0 0 6.3732543 5.8244506 L 6.0084187 5.7428018 L 5.4627156 3.4860921 A 0.17638899 0.17638899 0 0 0 5.2958007 3.3506998 z " /><path
     id="path6"
     style="baseline-shift:baseline;display:inline;overflow:visible;vector-effect:none;stroke-linecap:round;enable-background:accumulate;stop-color:#000000"
     d="M 6.7029499 5.6440999 A 0.35277799 0.35277799 0 0 0 6.4533528 5.7479695 L 5.7479695 6.4533528 A 0.35277799 0.35277799 0 0 0 5.7479695 6.9530639 A 0.35277799 0.35277799 0 0 0 6.101953 7.0398803 A 0.35277799 0.35277799 0 0 0 6.1892862 7.3928303 A 0.35277799 0.35277799 0 0 0 6.5432698 7.4786132 A 0.35277799 0.35277799 0 0 0 6.6290526 7.834147 A 0.35277799 0.35277799 0 0 0 7.1287637 7.834147 L 7.834147 7.1287637 A 0.35277799 0.35277799 0 0 0 7.834147 6.6290526 A 0.35277799 0.35277799 0 0 0 7.4786132 6.5432698 A 0.35277799 0.35277799 0 0 0 7.3928303 6.1892862 A 0.35277799 0.35277799 0 0 0 7.0388467 6.1029866 A 0.35277799 0.35277799 0 0 0 6.9530639 5.7479695 A 0.35277799 0.35277799 0 0 0 6.7029499 5.6440999 z " /><style
     type="text/css"
     id="style1">
	.st0{fill:none;}
	.st1{clip-path:url(#SVGID_2_);}
	.st2{fill:none;stroke:#000000;stroke-width:0.25;stroke-miterlimit:10;}
	.st3{opacity:0.4;}
	.st4{clip-path:url(#SVGID_4_);fill:none;stroke:#000000;stroke-width:0.25;stroke-miterlimit:10;}
	.st5{clip-path:url(#SVGID_4_);}
	.st6{opacity:0.2;}
	.st7{display:none;}
</style></svg>
