<?xml version="1.0" encoding="UTF-8" standalone="no"?>
<!-- Created with Inkscape (http://www.inkscape.org/) -->

<svg
   width="32"
   height="32"
   viewBox="0 0 32 32"
   version="1.1"
   id="svg1"
   xml:space="preserve"
   xmlns="http://www.w3.org/2000/svg"
   xmlns:svg="http://www.w3.org/2000/svg"><defs
     id="defs1" /><path
     id="path3"
     style="baseline-shift:baseline;display:inline;overflow:visible;vector-effect:none;enable-background:accumulate;stop-color:#000000;stop-opacity:1;opacity:1"
     d="M 15.996094 3.5 C 13.936235 3.4784162 11.891458 3.8057079 10.308594 4.8027344 C 8.7231923 5.8013591 7.65625 7.5199082 7.65625 10 C 7.65625 11.101617 8.0007071 11.914721 8.3046875 12.648438 C 8.6086679 13.382153 8.875 14.039422 8.875 15 C 8.875 15.699165 8.0649419 16.870767 7.1464844 18.351562 C 6.2280269 19.832358 5.265625 21.682295 5.265625 24 C 5.265625 27.145399 6.7139623 29.126307 8.7773438 30.193359 C 10.840725 31.260412 13.468121 31.5 16.001953 31.5 C 18.535786 31.5 21.161228 31.260412 23.224609 30.193359 C 25.287991 29.126307 26.736328 27.145399 26.736328 24 C 26.736328 21.682295 25.773926 19.832359 24.855469 18.351562 C 23.937011 16.870767 23.126953 15.699165 23.126953 15 C 23.126953 14.039422 23.393285 13.382153 23.697266 12.648438 C 24.001246 11.91472 24.345703 11.101617 24.345703 10 C 24.345703 7.5199083 23.278761 5.8013589 21.693359 4.8027344 C 20.110495 3.805708 18.065718 3.478416 16.005859 3.5 L 15.996094 3.5 z M 15.996094 4.5 L 16.001953 4.5 L 16.005859 4.5 C 17.952802 4.478544 19.825714 4.8078888 21.160156 5.6484375 C 22.494599 6.4889862 23.345703 7.7925919 23.345703 10 C 23.345703 10.898383 23.079157 11.527711 22.773438 12.265625 C 22.467683 13.003539 22.126953 13.8471 22.126953 15 C 22.126953 16.300836 23.119304 17.449545 24.005859 18.878906 C 24.892415 20.308267 25.736328 21.95833 25.736328 24 C 25.736328 26.854601 24.567731 28.373693 22.763672 29.306641 C 20.959613 30.239588 18.469133 30.5 16.001953 30.5 C 13.534774 30.5 11.04234 30.239588 9.2382812 29.306641 C 7.4342222 28.373693 6.265625 26.854601 6.265625 24 C 6.265625 21.95833 7.1095385 20.308267 7.9960938 18.878906 C 8.8826491 17.449546 9.875 16.300835 9.875 15 C 9.875 13.8471 9.5342355 13.003539 9.2285156 12.265625 C 8.9227958 11.527711 8.65625 10.898383 8.65625 10 C 8.65625 7.7925918 9.5073543 6.4889864 10.841797 5.6484375 C 12.176239 4.8078886 14.049152 4.4785438 15.996094 4.5 z " /><path
     style="baseline-shift:baseline;display:inline;overflow:visible;vector-effect:none;stroke-linecap:round;stroke-linejoin:round;paint-order:markers fill stroke;enable-background:accumulate;stop-color:#000000;stop-opacity:1;opacity:1"
     d="m 16,8.5 c -1.927074,0 -3.5,1.572926 -3.5,3.5 0,1.927074 1.572926,3.5 3.5,3.5 1.927074,0 3.5,-1.572926 3.5,-3.5 0,-1.927074 -1.572926,-3.5 -3.5,-3.5 z m 0,1 c 1.386634,0 2.5,1.113366 2.5,2.5 0,1.386634 -1.113366,2.5 -2.5,2.5 -1.386634,0 -2.5,-1.113366 -2.5,-2.5 0,-1.386634 1.113366,-2.5 2.5,-2.5 z"
     id="path4" /><path
     id="path5"
     style="baseline-shift:baseline;display:inline;overflow:visible;vector-effect:none;stroke-linecap:square;enable-background:accumulate;stop-color:#000000"
     d="m 11,21 v 2 h 9 1 v -2 h -1 z m 3,0.5 h 4 V 22 h -4 z" /><path
     style="display:inline;fill:#000000;stroke:none;stroke-width:1px;stroke-linecap:butt;stroke-linejoin:miter;stroke-opacity:1"
     d="m 14,2 v 8 l 2,-1 2,1 V 2 A 1,1 0 0 0 17,1 h -2 a 1,1 0 0 0 -1,1 z"
     id="path8" /></svg>
