<?xml version="1.0" encoding="UTF-8" standalone="no"?>
<!-- Created with Inkscape (http://www.inkscape.org/) -->

<svg
   width="32"
   height="32"
   viewBox="0 0 32 32"
   version="1.1"
   id="svg1"
   xml:space="preserve"
   xmlns="http://www.w3.org/2000/svg"
   xmlns:svg="http://www.w3.org/2000/svg"><defs
     id="defs1" /><path
     id="path7"
     style="display:inline;fill:#000000;stroke:none;stroke-width:1px;stroke-linecap:butt;stroke-linejoin:miter;stroke-opacity:1"
     d="m 12,19 v 1 c 1.020833,0.04167 1.403646,0.429687 2,1 h 2 2 c 0.596354,-0.570313 0.979167,-0.95833 2,-1 v -1 h -4 z" /><path
     id="path4-6"
     style="baseline-shift:baseline;display:inline;overflow:visible;vector-effect:none;stroke-linecap:round;stroke-linejoin:round;paint-order:markers fill stroke;enable-background:accumulate;stop-color:#000000;stop-opacity:1;opacity:1"
     d="M 15.486328 1 A 1.216746 1.013955 0 0 0 14.269531 2 L 14.244141 3.5449219 C 12.289949 3.639209 10.848478 3.8971825 9.7851562 4.5 C 8.4262314 5.2704003 7.8398437 6.6598455 7.8398438 8.5761719 C 7.8398438 9.4608857 7.9773298 10.116574 8.1035156 10.759766 C 8.2297014 11.402957 8.3470891 12.040906 8.34375 12.998047 C 8.3386 14.473061 7.5971528 15.911762 6.7988281 17.642578 C 6.0005034 19.373394 5.171875 21.394651 5.171875 24 C 5.171875 26.141659 5.8121335 28.087165 7.5273438 29.429688 C 9.2425542 30.77221 11.939453 31.5 16 31.5 C 20.060547 31.5 22.757446 30.77221 24.472656 29.429688 C 26.187867 28.087166 26.828125 26.141659 26.828125 24 C 26.828125 21.394651 25.999497 19.373394 25.201172 17.642578 C 24.402847 15.911762 23.661395 14.473061 23.65625 12.998047 C 23.65295 12.040906 23.770299 11.402957 23.896484 10.759766 C 24.02267 10.116574 24.160156 9.4608856 24.160156 8.5761719 C 24.160156 6.6598455 23.573768 5.2704003 22.214844 4.5 C 21.151522 3.8971825 19.710051 3.639209 17.755859 3.5449219 L 17.730469 2 A 1.216746 1.013955 0 0 0 16.513672 1 L 15.486328 1 z M 14.228516 4.5527344 L 14.154297 9.0292969 C 13.162591 9.6485031 12.5 10.749455 12.5 12 C 12.5 13.927074 14.072926 15.5 16 15.5 C 16.436828 15.5 16.85595 15.418934 17.242188 15.271484 C 17.239955 15.654571 17.236768 16.034198 17.238281 16.376953 C 17.240681 16.920414 17.246281 17.35461 17.300781 17.626953 C 17.388141 18.063765 17.664285 18.392771 18.007812 18.601562 C 18.351342 18.810354 18.76132 18.915407 19.177734 18.955078 C 19.594149 18.994748 20.01695 18.967984 20.388672 18.896484 C 20.760394 18.824984 21.078431 18.716089 21.306641 18.542969 C 21.924876 18.073974 22.261338 17.263877 22.384766 16.337891 C 22.508193 15.411904 22.417566 14.357328 22.128906 13.349609 C 21.840251 12.341891 21.354486 11.380452 20.666016 10.658203 C 20.068335 10.0312 19.309566 9.5854187 18.417969 9.4726562 C 18.243649 9.3058032 18.051299 9.1576679 17.845703 9.0292969 L 17.771484 4.5527344 C 19.619998 4.6552302 20.911557 4.9104206 21.720703 5.3691406 C 22.767615 5.9626549 23.160156 6.8388821 23.160156 8.5761719 C 23.160156 9.3585774 23.043926 9.9144257 22.916016 10.566406 C 22.788106 11.218387 22.652612 11.959094 22.65625 13.001953 C 22.66255 14.798049 23.508209 16.35914 24.292969 18.060547 C 25.077729 19.761953 25.828125 21.605349 25.828125 24 C 25.828125 25.952091 25.304321 27.506585 23.855469 28.640625 C 22.406617 29.774665 19.939453 30.5 16 30.5 C 12.060547 30.5 9.5933833 29.774665 8.1445312 28.640625 C 6.695679 27.506585 6.171875 25.952091 6.171875 24 C 6.171875 21.605349 6.9222715 19.761953 7.7070312 18.060547 C 8.4917912 16.35914 9.337484 14.798049 9.34375 13.001953 C 9.3473882 11.959094 9.2118946 11.218387 9.0839844 10.566406 C 8.9560742 9.9144257 8.8398438 9.3585773 8.8398438 8.5761719 C 8.8398438 6.8388821 9.2323849 5.9626549 10.279297 5.3691406 C 11.088249 4.9105302 12.380297 4.6552984 14.228516 4.5527344 z M 16 9.5 C 17.386634 9.5 18.5 10.613366 18.5 12 C 18.5 13.386634 17.386634 14.5 16 14.5 C 14.613366 14.5 13.5 13.386634 13.5 12 C 13.5 10.613366 14.613366 9.5 16 9.5 z M 18.992188 10.189453 C 19.48494 10.351571 19.931467 10.612375 20.304688 11.003906 C 20.920851 11.650299 21.377762 12.541378 21.648438 13.486328 C 21.919114 14.431279 22.003103 15.427647 21.890625 16.271484 C 21.778147 17.115322 21.468701 17.793419 21.005859 18.144531 C 20.888764 18.233361 20.619044 18.341949 20.294922 18.404297 C 19.9708 18.466647 19.589639 18.491621 19.226562 18.457031 C 18.863487 18.422441 18.520294 18.327425 18.267578 18.173828 C 18.014862 18.020231 17.851712 17.823015 17.792969 17.529297 C 17.760329 17.366107 17.740701 16.911475 17.738281 16.375 C 17.73647 15.965936 17.739996 15.498631 17.742188 15.033203 C 18.790684 14.427329 19.5 13.2933 19.5 12 C 19.5 11.338108 19.313924 10.718402 18.992188 10.189453 z " /></svg>
