<?xml version="1.0" encoding="UTF-8" standalone="no"?>
<!-- Created with Inkscape (http://www.inkscape.org/) -->

<svg
   width="32"
   height="32"
   viewBox="0 0 32 32"
   version="1.1"
   id="svg1"
   xml:space="preserve"
   xmlns="http://www.w3.org/2000/svg"
   xmlns:svg="http://www.w3.org/2000/svg"><defs
     id="defs1" /><path
     id="path3-9"
     style="baseline-shift:baseline;display:inline;overflow:visible;vector-effect:none;enable-background:accumulate;stop-color:#000000;stop-opacity:1;opacity:1"
     d="M 15.400391 1 A 1.2290298 1.0241915 0 0 0 14.169922 2 L 14.037109 6.65625 C 13.168652 6.8032936 12.343927 7.0616814 11.630859 7.4628906 C 10.392377 8.1597254 9.5 9.3618944 9.5 11 C 9.5 11.917088 9.7919667 12.583286 10.041016 13.162109 C 10.290064 13.740933 10.5 14.235734 10.5 15 C 10.5 15.253998 10.354174 15.687451 10.085938 16.210938 C 9.8176998 16.734424 9.4435928 17.349981 9.0625 18.037109 C 8.3003143 19.411367 7.5 21.083196 7.5 23 C 7.5 25.57842 8.597838 27.297573 10.21875 28.263672 C 11.839662 29.229771 13.920932 29.5 16.001953 29.5 C 18.082975 29.5 20.162773 29.229811 21.783203 28.263672 C 23.403633 27.297532 24.5 25.578351 24.5 23 C 24.5 21.083196 23.699686 19.411367 22.9375 18.037109 C 22.556407 17.349981 22.182301 16.734424 21.914062 16.210938 C 21.645825 15.687451 21.5 15.253998 21.5 15 C 21.5 14.235734 21.709936 13.740933 21.958984 13.162109 C 22.208033 12.583286 22.5 11.917088 22.5 11 C 22.5 9.3333333 21.610009 8.1197918 20.369141 7.4257812 C 19.654654 7.0261732 18.829664 6.7734038 17.960938 6.6347656 L 17.830078 2 A 1.2290298 1.0241915 0 0 0 16.599609 1 L 15.400391 1 z M 17.990234 7.6601562 C 18.697368 7.7900583 19.347387 8.0004599 19.880859 8.2988281 C 20.889603 8.8630878 21.5 9.6666667 21.5 11 C 21.5 11.712542 21.291967 12.184332 21.041016 12.767578 C 20.790064 13.350824 20.5 14.042172 20.5 15 C 20.5 15.560817 20.729176 16.091738 21.023438 16.666016 C 21.317701 17.240294 21.693593 17.856327 22.0625 18.521484 C 22.800314 19.851799 23.5 21.364722 23.5 23 C 23.5 25.310539 22.632782 26.592659 21.271484 27.404297 C 19.910187 28.215935 17.991999 28.5 16.001953 28.5 C 14.011908 28.5 12.092296 28.215975 10.730469 27.404297 C 9.3686416 26.592618 8.5 25.31047 8.5 23 C 8.5 21.364722 9.1996857 19.851799 9.9375 18.521484 C 10.306407 17.856327 10.682299 17.240294 10.976562 16.666016 C 11.270824 16.091738 11.5 15.560816 11.5 15 C 11.5 14.042172 11.209936 13.350824 10.958984 12.767578 C 10.708033 12.184332 10.5 11.712542 10.5 11 C 10.5 9.7025449 11.109323 8.9032594 12.121094 8.3339844 C 12.654468 8.0338799 13.304141 7.8183019 14.009766 7.6816406 L 14 8 C 15 8.3887701 15.657812 8.6447636 16 9 C 16.374057 8.61557 17 8.4404856 18 8 L 17.990234 7.6601562 z " /><path
     style="baseline-shift:baseline;display:inline;overflow:visible;vector-effect:none;stroke-linecap:round;stroke-linejoin:round;paint-order:markers fill stroke;enable-background:accumulate;stop-color:#000000;stop-opacity:1;opacity:1"
     d="m 16,10.8125 c -1.927074,0 -3.5,1.572926 -3.5,3.5 0,1.927074 1.572926,3.5 3.5,3.5 1.927074,0 3.5,-1.572926 3.5,-3.5 0,-1.927074 -1.572926,-3.5 -3.5,-3.5 z m 0,1 c 1.386634,0 2.5,1.113366 2.5,2.5 0,1.386634 -1.113366,2.5 -2.5,2.5 -1.386634,0 -2.5,-1.113366 -2.5,-2.5 0,-1.386634 1.113366,-2.5 2.5,-2.5 z"
     id="path4-3" /><path
     style="fill:#000000;stroke:none;stroke-width:1px;stroke-linecap:butt;stroke-linejoin:miter;stroke-opacity:1"
     d="m 12,23 v 2 h 8 v -2 z"
     id="path22" /></svg>
