<?xml version="1.0" encoding="UTF-8" standalone="no"?>
<!-- Created with Inkscape (http://www.inkscape.org/) -->

<svg
   width="23.999998pt"
   height="24pt"
   viewBox="0 0 8.4666658 8.4666666"
   version="1.1"
   id="svg1"
   xml:space="preserve"
   xmlns="http://www.w3.org/2000/svg"
   xmlns:svg="http://www.w3.org/2000/svg"><defs
     id="defs1" /><g
     id="layer7"
     style="display:none"><g
       id="g63"
       transform="scale(0.35277776)"
       style="display:inline;stroke-width:0.75">
	<circle
   id="circle"
   class="st6"
   cx="12"
   cy="12"
   r="10"
   style="opacity:0.2;stroke-width:0.75" />
	<path
   id="Rectangle"
   class="st6"
   d="M 19,21 H 5 C 3.9,21 3,20.1 3,19 V 5 C 3,3.9 3.9,3 5,3 h 14 c 1.1,0 2,0.9 2,2 v 14 c 0,1.1 -0.9,2 -2,2 z"
   style="opacity:0.2;stroke-width:0.75" />
	<path
   id="Vertical_Rectangle"
   class="st6"
   d="m 6,22 h 12 c 1.1,0 2,-0.9 2,-2 V 4 C 20,2.9 19.1,2 18,2 H 6 C 4.9,2 4,2.9 4,4 v 16 c 0,1.1 0.9,2 2,2 z"
   style="opacity:0.2;stroke-width:0.75" />
	<path
   id="Horizontal_Rectangle"
   class="st6"
   d="M 22,18 V 6 C 22,4.9 21.1,4 20,4 H 4 C 2.9,4 2,4.9 2,6 v 12 c 0,1.1 0.9,2 2,2 h 16 c 1.1,0 2,-0.9 2,-2 z"
   style="display:inline;opacity:0.2;stroke-width:0.75" />
</g></g><g
     id="layer1"
     style="display:none"><path
       id="path2"
       style="fill:#000000;stroke:none;stroke-width:1.5875;stroke-linecap:round;stroke-linejoin:round;paint-order:markers fill stroke"
       d="M 3.175,0.35295003 A 2.8222222,2.8222222 0 0 0 0.35295003,3.175 2.8222222,2.8222222 0 0 0 3.175,5.9970499 2.8222222,2.8222222 0 0 0 5.9970499,3.175 2.8222222,2.8222222 0 0 0 3.175,0.35295003 Z m 0,1.41076657 A 1.4111111,1.4111111 0 0 1 4.5862833,3.175 1.4111111,1.4111111 0 0 1 3.175,4.5862833 1.4111111,1.4111111 0 0 1 1.7637166,3.175 1.4111111,1.4111111 0 0 1 3.175,1.7637166 Z" /><path
       style="fill:none;stroke:#000000;stroke-width:0.352778;stroke-linecap:round;stroke-linejoin:miter;stroke-dasharray:none;stroke-opacity:1"
       d="M 3.1750001,5.2916667 6.3338336,5.9972222"
       id="path4" /><path
       style="fill:none;stroke:#000000;stroke-width:0.352778;stroke-linecap:round;stroke-linejoin:miter;stroke-dasharray:none;stroke-opacity:1"
       d="M 5.9972222,6.4455415 5.2916668,3.5277778"
       id="path5" /><path
       style="fill:none;stroke:#000000;stroke-width:0.705556;stroke-linecap:round;stroke-linejoin:miter;stroke-dasharray:none;stroke-opacity:1"
       d="M 5.9972224,6.7027779 6.7027779,5.9972223"
       id="path6" /><path
       style="fill:none;stroke:#000000;stroke-width:0.705556;stroke-linecap:round;stroke-linejoin:miter;stroke-dasharray:none;stroke-opacity:1"
       d="M 6.4381946,7.1437502 7.1437501,6.4381946"
       id="path6-6" /><path
       style="fill:none;stroke:#000000;stroke-width:0.705556;stroke-linecap:round;stroke-linejoin:miter;stroke-dasharray:none;stroke-opacity:1"
       d="M 6.8791668,7.5847224 7.5847223,6.8791668"
       id="path6-1" /></g><g
     id="layer5"
     style="display:none"><path
       id="path118"
       style="fill:#000000;stroke:none;stroke-width:0.705556;stroke-linecap:round;stroke-linejoin:round;stroke-dasharray:none;paint-order:markers fill stroke"
       d="M 4.2333333,1.058161 C 2.7286108,1.0581412 1.4476575,2.110447 1.1322306,3.5515488 1.0929003,3.7312384 1.2272948,3.8802109 1.4112833,3.8802109 H 3.52795 v 3.52795 c 0,0.1954389 0.1569943,0.35295 0.3524332,0.35295 h 0.7059001 c 0.1954389,0 0.3524332,-0.1575111 0.3524332,-0.35295 v -3.52795 h 2.0923788 c 0.1975215,0 0.3418654,-0.1599102 0.298173,-0.3524333 C 7.0049958,2.0989295 5.7297425,1.0581413 4.2333333,1.058161 Z"
       transform="translate(2.4742634e-8,1.7234721e-4)" /></g><g
     id="layer8"
     style="display:none"><path
       style="display:inline;fill:none;stroke:#000000;stroke-width:0.705556;stroke-linecap:round;stroke-linejoin:miter;stroke-dasharray:none;stroke-opacity:1"
       d="M 3.1749999,1.0583333 3.175,3.8805555 A 1.0583334,1.0583334 44.999999 0 0 4.2333334,4.9388889 1.0583333,1.0583333 135 0 0 5.2916667,3.8805555 l -1e-7,-2.8222222"
       id="path120" /><path
       style="fill:none;stroke:#000000;stroke-width:0.705556;stroke-linecap:round;stroke-linejoin:miter;stroke-dasharray:none;stroke-opacity:1"
       d="M 4.2333333,4.9388889 V 7.4083332"
       id="path121" /><g
       id="g125"><path
         id="path125"
         style="font-variation-settings:normal;opacity:1;fill:none;fill-opacity:1;stroke:#000000;stroke-width:0.529167;stroke-linecap:round;stroke-linejoin:round;stroke-miterlimit:4;stroke-dasharray:none;stroke-dashoffset:0;stroke-opacity:1;paint-order:markers fill stroke;stop-color:#000000;stop-opacity:1"
         d="M 2.2570431,5.8568456 A 2.5576386,2.5576386 0 0 1 1.6756946,4.2333331 2.5576386,2.5576386 0 0 1 2.257043,2.6098208" /><path
         id="path124"
         style="font-variation-settings:normal;fill:none;fill-opacity:1;stroke:#000000;stroke-width:0.529167;stroke-linecap:round;stroke-linejoin:round;stroke-miterlimit:4;stroke-dasharray:none;stroke-dashoffset:0;stroke-opacity:1;paint-order:markers fill stroke;stop-color:#000000"
         d="M 1.573129,6.5407602 A 3.2631943,3.2631943 0 0 1 0.61736127,4.2333331 3.2631943,3.2631943 0 0 1 1.5731288,1.9259063" /></g><g
       id="g125-4"
       transform="matrix(-1,0,0,1,8.4666668,2.4999999e-8)"><path
         id="path125-4"
         style="font-variation-settings:normal;opacity:1;fill:none;fill-opacity:1;stroke:#000000;stroke-width:0.529167;stroke-linecap:round;stroke-linejoin:round;stroke-miterlimit:4;stroke-dasharray:none;stroke-dashoffset:0;stroke-opacity:1;paint-order:markers fill stroke;stop-color:#000000;stop-opacity:1"
         d="M 2.2570431,5.8568456 A 2.5576386,2.5576386 0 0 1 1.6756946,4.2333331 2.5576386,2.5576386 0 0 1 2.257043,2.6098208" /><path
         id="path124-6"
         style="font-variation-settings:normal;fill:none;fill-opacity:1;stroke:#000000;stroke-width:0.529167;stroke-linecap:round;stroke-linejoin:round;stroke-miterlimit:4;stroke-dasharray:none;stroke-dashoffset:0;stroke-opacity:1;paint-order:markers fill stroke;stop-color:#000000"
         d="M 1.573129,6.5407602 A 3.2631943,3.2631943 0 0 1 0.61736127,4.2333331 3.2631943,3.2631943 0 0 1 1.5731288,1.9259063" /></g></g><g
     id="layer9"
     style="display:none"><path
       style="fill:none;stroke:#000000;stroke-width:0.705556;stroke-linecap:square;stroke-linejoin:bevel;stroke-dasharray:none;stroke-opacity:1"
       d="M 5.2916666,1.0583333 H 3.175 v 6.35 h 2.1166666"
       id="path126" /><path
       style="fill:none;stroke:#000000;stroke-width:0.705556;stroke-linecap:butt;stroke-linejoin:miter;stroke-dasharray:none;stroke-opacity:1"
       d="M 3.175,4.2333333 H 5.2916667"
       id="path127" /><path
       style="fill:none;stroke:#000000;stroke-width:0.352778;stroke-linecap:butt;stroke-linejoin:miter;stroke-dasharray:none;stroke-opacity:1"
       d="M 3.1764615,2.3047426 4.5846494,2.2930496"
       id="path128-8" /><path
       style="font-variation-settings:normal;opacity:1;vector-effect:none;fill:none;fill-opacity:1;stroke:#000000;stroke-width:0.352778;stroke-linecap:butt;stroke-linejoin:miter;stroke-miterlimit:4;stroke-dasharray:none;stroke-dashoffset:0;stroke-opacity:1;-inkscape-stroke:none;stop-color:#000000;stop-opacity:1"
       d="M 3.1764646,3.3513949 4.5846525,3.3397019"
       id="path128-8-7" /><path
       style="font-variation-settings:normal;vector-effect:none;fill:none;fill-opacity:1;stroke:#000000;stroke-width:0.352778;stroke-linecap:butt;stroke-linejoin:miter;stroke-miterlimit:4;stroke-dasharray:none;stroke-dashoffset:0;stroke-opacity:1;-inkscape-stroke:none;stop-color:#000000"
       d="M 3.1764586,5.1269648 4.5846465,5.1152718"
       id="path128-8-7-6" /><path
       style="font-variation-settings:normal;vector-effect:none;fill:none;fill-opacity:1;stroke:#000000;stroke-width:0.352778;stroke-linecap:butt;stroke-linejoin:miter;stroke-miterlimit:4;stroke-dasharray:none;stroke-dashoffset:0;stroke-opacity:1;-inkscape-stroke:none;stop-color:#000000"
       d="M 3.1764587,6.1852981 4.5846465,6.1736051"
       id="path128-8-7-6-0" /></g><g
     id="layer2"
     style="display:inline"><path
       style="fill:none;stroke:#000000;stroke-width:0.705556;stroke-linecap:round;stroke-linejoin:miter;stroke-dasharray:none;stroke-opacity:1"
       d="M 2.1166667,0.70555556 0.70555556,2.1166667"
       id="path3" /><path
       style="fill:none;stroke:#000000;stroke-width:0.705556;stroke-linecap:round;stroke-linejoin:miter;stroke-dasharray:none;stroke-opacity:1"
       d="M 0.70555556,2.1166667 6.3500001,7.7611112"
       id="path7" /><path
       style="fill:none;stroke:#000000;stroke-width:0.705556;stroke-linecap:round;stroke-linejoin:miter;stroke-dasharray:none;stroke-opacity:1"
       d="M 7.7611112,6.3499999 6.3500002,7.7611112"
       id="path8" /><path
       style="fill:none;stroke:#000000;stroke-width:0.529167;stroke-linecap:round;stroke-linejoin:miter;stroke-dasharray:none;stroke-opacity:1"
       d="M 4.9388889,3.5277778 3.5277778,4.9388889"
       id="path3-4" /><path
       style="fill:none;stroke:#000000;stroke-width:0.529167;stroke-linecap:round;stroke-linejoin:miter;stroke-dasharray:none;stroke-opacity:1"
       d="M 1.7638889,2.4694444 2.4694445,1.7638889"
       id="path9" /><path
       style="fill:none;stroke:#000000;stroke-width:0.529167;stroke-linecap:round;stroke-linejoin:miter;stroke-dasharray:none;stroke-opacity:1"
       d="M 2.4694444,3.175 3.175,2.4694445"
       id="path9-5" /><path
       style="fill:none;stroke:#000000;stroke-width:0.529167;stroke-linecap:round;stroke-linejoin:miter;stroke-dasharray:none;stroke-opacity:1"
       d="M 3.175,3.8805555 3.8805556,3.175"
       id="path9-1" /><path
       style="fill:none;stroke:#000000;stroke-width:0.529167;stroke-linecap:round;stroke-linejoin:miter;stroke-dasharray:none;stroke-opacity:1"
       d="M 4.5861111,5.2916666 5.2916667,4.5861111"
       id="path9-14" /><path
       style="fill:none;stroke:#000000;stroke-width:0.529167;stroke-linecap:round;stroke-linejoin:miter;stroke-dasharray:none;stroke-opacity:1"
       d="M 5.2916667,5.9972222 5.9972223,5.2916667"
       id="path9-16" /><path
       style="fill:none;stroke:#000000;stroke-width:0.529167;stroke-linecap:round;stroke-linejoin:miter;stroke-dasharray:none;stroke-opacity:1"
       d="M 5.9972223,6.7027777 6.7027779,5.9972222"
       id="path9-18" /></g><g
     id="layer3"
     style="display:none"><path
       style="fill:none;stroke:#000000;stroke-width:0.529167;stroke-linecap:round;stroke-linejoin:miter;stroke-dasharray:none;stroke-opacity:1"
       d="m 2.1166666,1.0583333 -0.3527777,6.35"
       id="path10" /><path
       style="fill:none;stroke:#000000;stroke-width:0.529167;stroke-linecap:round;stroke-linejoin:miter;stroke-dasharray:none;stroke-opacity:1"
       d="M 3.5277778,1.0583333 3.3513888,7.4083334"
       id="path11" /><path
       style="fill:none;stroke:#000000;stroke-width:0.529167;stroke-linecap:round;stroke-linejoin:miter;stroke-dasharray:none;stroke-opacity:1"
       d="M 4.9388888,1.0583333 5.1152777,7.4083334"
       id="path12" /><path
       style="fill:none;stroke:#000000;stroke-width:0.529167;stroke-linecap:round;stroke-linejoin:miter;stroke-dasharray:none;stroke-opacity:1"
       d="m 6.3500001,1.0583333 0.3527777,6.35"
       id="path13" /></g><g
     id="layer10"
     style="display:none"><path
       style="fill:none;stroke:#000000;stroke-width:0.705556;stroke-linecap:square;stroke-linejoin:miter;stroke-dasharray:none;stroke-opacity:1"
       d="M 1.0583333,2.1166667 V 6.3499999"
       id="path129" /><path
       style="fill:none;stroke:#000000;stroke-width:0.705556;stroke-linecap:square;stroke-linejoin:miter;stroke-dasharray:0.705556, 1.41111;stroke-dashoffset:0.352778;stroke-opacity:1"
       d="M 7.4083335,2.1166667 V 6.3499999"
       id="path130" /><path
       style="fill:none;stroke:#000000;stroke-width:0.264583px;stroke-linecap:butt;stroke-linejoin:miter;stroke-opacity:1"
       d="M 3.175,3.175 2.1166667,4.2333333 3.175,5.2916666"
       id="path131" /><path
       style="fill:none;stroke:#000000;stroke-width:0.264583px;stroke-linecap:butt;stroke-linejoin:miter;stroke-opacity:1"
       d="M 5.2916666,3.175 6.3500002,4.2333333 5.2916666,5.2916666"
       id="path132" /><path
       style="fill:none;stroke:#000000;stroke-width:0.352778;stroke-linecap:butt;stroke-linejoin:miter;stroke-dasharray:none;stroke-opacity:1"
       d="M 2.1166667,4.2333333 H 6.3500002"
       id="path133" /></g><style
     type="text/css"
     id="style1">
	.st0{fill:none;}
	.st1{clip-path:url(#SVGID_2_);}
	.st2{fill:none;stroke:#000000;stroke-width:0.25;stroke-miterlimit:10;}
	.st3{opacity:0.4;}
	.st4{clip-path:url(#SVGID_4_);fill:none;stroke:#000000;stroke-width:0.25;stroke-miterlimit:10;}
	.st5{clip-path:url(#SVGID_4_);}
	.st6{opacity:0.2;}
	.st7{display:none;}
</style></svg>
